STARTFONT 2.1
FONT psf
SIZE 20 75 75
FONTBOUNDINGBOX 14 20 0 -5
STARTPROPERTIES 3
FONT_DESCENT 5
FONT_ASCENT 15
DEFAULT_CHAR 255
ENDPROPERTIES
CHARS 256
STARTCHAR C0000
ENCODING 0
SWIDTH 666 0
DWIDTH 14 0
BBX 14 20 0 -5
BITMAP
0000
0000
0000
f800
9800
9800
9800
9800
9800
9800
9800
9800
9800
9800
9800
9800
9800
9800
9800
9800
ENDCHAR
STARTCHAR C0001
ENCODING 1
SWIDTH 666 0
DWIDTH 14 0
BBX 14 20 0 -5
BITMAP
0000
0000
0000
f800
9800
9800
9800
9800
9800
9800
9800
9800
9800
9800
9800
9800
9800
9800
9800
9800
ENDCHAR
STARTCHAR C0002
ENCODING 2
SWIDTH 666 0
DWIDTH 14 0
BBX 14 20 0 -5
BITMAP
0000
0000
0000
f800
9800
9800
9800
9800
9800
9800
9800
9800
9800
9800
9800
9800
9800
9800
9800
9800
ENDCHAR
STARTCHAR C0003
ENCODING 3
SWIDTH 666 0
DWIDTH 14 0
BBX 14 20 0 -5
BITMAP
0000
0000
0000
f800
9800
9800
9800
9800
9800
9800
9800
9800
9800
9800
9800
9800
9800
9800
9800
9800
ENDCHAR
STARTCHAR C0004
ENCODING 4
SWIDTH 666 0
DWIDTH 14 0
BBX 14 20 0 -5
BITMAP
0000
0000
0000
f800
9800
9800
9800
9800
9800
9800
9800
9800
9800
9800
9800
9800
9800
9800
9800
9800
ENDCHAR
STARTCHAR C0005
ENCODING 5
SWIDTH 666 0
DWIDTH 14 0
BBX 14 20 0 -5
BITMAP
0000
0000
0000
f800
9800
9800
9800
9800
9800
9800
9800
9800
9800
9800
9800
9800
9800
9800
9800
9800
ENDCHAR
STARTCHAR C0006
ENCODING 6
SWIDTH 666 0
DWIDTH 14 0
BBX 14 20 0 -5
BITMAP
0000
0000
0000
f800
9800
9800
9800
9800
9800
9800
9800
9800
9800
9800
9800
9800
9800
9800
9800
9800
ENDCHAR
STARTCHAR C0007
ENCODING 7
SWIDTH 666 0
DWIDTH 14 0
BBX 14 20 0 -5
BITMAP
0000
0000
0000
f800
9800
9800
9800
9800
9800
9800
9800
9800
9800
9800
9800
9800
9800
9800
9800
9800
ENDCHAR
STARTCHAR C0008
ENCODING 8
SWIDTH 666 0
DWIDTH 14 0
BBX 14 20 0 -5
BITMAP
0000
0000
0000
f800
9800
9800
9800
9800
9800
9800
9800
9800
9800
9800
9800
9800
9800
9800
9800
9800
ENDCHAR
STARTCHAR C0009
ENCODING 9
SWIDTH 666 0
DWIDTH 14 0
BBX 14 20 0 -5
BITMAP
0000
0000
0000
f800
9800
9800
9800
9800
9800
9800
9800
9800
9800
9800
9800
9800
9800
9800
9800
9800
ENDCHAR
STARTCHAR C000a
ENCODING 10
SWIDTH 666 0
DWIDTH 14 0
BBX 14 20 0 -5
BITMAP
0000
0000
0000
f800
9800
9800
9800
9800
9800
9800
9800
9800
9800
9800
9800
9800
9800
9800
9800
9800
ENDCHAR
STARTCHAR C000b
ENCODING 11
SWIDTH 666 0
DWIDTH 14 0
BBX 14 20 0 -5
BITMAP
0000
0000
0000
f800
9800
9800
9800
9800
9800
9800
9800
9800
9800
9800
9800
9800
9800
9800
9800
9800
ENDCHAR
STARTCHAR C000c
ENCODING 12
SWIDTH 666 0
DWIDTH 14 0
BBX 14 20 0 -5
BITMAP
0000
0000
0000
f800
9800
9800
9800
9800
9800
9800
9800
9800
9800
9800
9800
9800
9800
9800
9800
9800
ENDCHAR
STARTCHAR C000d
ENCODING 13
SWIDTH 666 0
DWIDTH 14 0
BBX 14 20 0 -5
BITMAP
0000
0000
0000
f800
9800
9800
9800
9800
9800
9800
9800
9800
9800
9800
9800
9800
9800
9800
9800
9800
ENDCHAR
STARTCHAR C000e
ENCODING 14
SWIDTH 666 0
DWIDTH 14 0
BBX 14 20 0 -5
BITMAP
0000
0000
0000
f800
9800
9800
9800
9800
9800
9800
9800
9800
9800
9800
9800
9800
9800
9800
9800
9800
ENDCHAR
STARTCHAR C000f
ENCODING 15
SWIDTH 666 0
DWIDTH 14 0
BBX 14 20 0 -5
BITMAP
0000
0000
0000
f800
9800
9800
9800
9800
9800
9800
9800
9800
9800
9800
9800
9800
9800
9800
9800
9800
ENDCHAR
STARTCHAR C0010
ENCODING 16
SWIDTH 666 0
DWIDTH 14 0
BBX 14 20 0 -5
BITMAP
0000
0000
0000
f800
9800
9800
9800
9800
9800
9800
9800
9800
9800
9800
9800
9800
9800
9800
9800
9800
ENDCHAR
STARTCHAR C0011
ENCODING 17
SWIDTH 666 0
DWIDTH 14 0
BBX 14 20 0 -5
BITMAP
0000
0000
0000
f800
9800
9800
9800
9800
9800
9800
9800
9800
9800
9800
9800
9800
9800
9800
9800
9800
ENDCHAR
STARTCHAR C0012
ENCODING 18
SWIDTH 666 0
DWIDTH 14 0
BBX 14 20 0 -5
BITMAP
0000
0000
0000
f800
9800
9800
9800
9800
9800
9800
9800
9800
9800
9800
9800
9800
9800
9800
9800
9800
ENDCHAR
STARTCHAR C0013
ENCODING 19
SWIDTH 666 0
DWIDTH 14 0
BBX 14 20 0 -5
BITMAP
0000
0000
0000
f800
9800
9800
9800
9800
9800
9800
9800
9800
9800
9800
9800
9800
9800
9800
9800
9800
ENDCHAR
STARTCHAR C0014
ENCODING 20
SWIDTH 666 0
DWIDTH 14 0
BBX 14 20 0 -5
BITMAP
0000
0000
0000
f800
9800
9800
9800
9800
9800
9800
9800
9800
9800
9800
9800
9800
9800
9800
9800
9800
ENDCHAR
STARTCHAR C0015
ENCODING 21
SWIDTH 666 0
DWIDTH 14 0
BBX 14 20 0 -5
BITMAP
0000
0000
0000
f800
9800
9800
9800
9800
9800
9800
9800
9800
9800
9800
9800
9800
9800
9800
9800
9800
ENDCHAR
STARTCHAR C0016
ENCODING 22
SWIDTH 666 0
DWIDTH 14 0
BBX 14 20 0 -5
BITMAP
0000
0000
0000
f800
9800
9800
9800
9800
9800
9800
9800
9800
9800
9800
9800
9800
9800
9800
9800
9800
ENDCHAR
STARTCHAR C0017
ENCODING 23
SWIDTH 666 0
DWIDTH 14 0
BBX 14 20 0 -5
BITMAP
0000
0000
0000
f800
9800
9800
9800
9800
9800
9800
9800
9800
9800
9800
9800
9800
9800
9800
9800
9800
ENDCHAR
STARTCHAR C0018
ENCODING 24
SWIDTH 666 0
DWIDTH 14 0
BBX 14 20 0 -5
BITMAP
0000
0000
0000
f800
9800
9800
9800
9800
9800
9800
9800
9800
9800
9800
9800
9800
9800
9800
9800
9800
ENDCHAR
STARTCHAR C0019
ENCODING 25
SWIDTH 666 0
DWIDTH 14 0
BBX 14 20 0 -5
BITMAP
0000
0000
0000
f800
9800
9800
9800
9800
9800
9800
9800
9800
9800
9800
9800
9800
9800
9800
9800
9800
ENDCHAR
STARTCHAR C001a
ENCODING 26
SWIDTH 666 0
DWIDTH 14 0
BBX 14 20 0 -5
BITMAP
0000
0000
0000
f800
9800
9800
9800
9800
9800
9800
9800
9800
9800
9800
9800
9800
9800
9800
9800
9800
ENDCHAR
STARTCHAR C001b
ENCODING 27
SWIDTH 666 0
DWIDTH 14 0
BBX 14 20 0 -5
BITMAP
0000
0000
0000
f800
9800
9800
9800
9800
9800
9800
9800
9800
9800
9800
9800
9800
9800
9800
9800
9800
ENDCHAR
STARTCHAR C001c
ENCODING 28
SWIDTH 666 0
DWIDTH 14 0
BBX 14 20 0 -5
BITMAP
0000
0000
0000
f800
9800
9800
9800
9800
9800
9800
9800
9800
9800
9800
9800
9800
9800
9800
9800
9800
ENDCHAR
STARTCHAR C001d
ENCODING 29
SWIDTH 666 0
DWIDTH 14 0
BBX 14 20 0 -5
BITMAP
0000
0000
0000
f800
9800
9800
9800
9800
9800
9800
9800
9800
9800
9800
9800
9800
9800
9800
9800
9800
ENDCHAR
STARTCHAR C001e
ENCODING 30
SWIDTH 666 0
DWIDTH 14 0
BBX 14 20 0 -5
BITMAP
0000
0000
0000
f800
9800
9800
9800
9800
9800
9800
9800
9800
9800
9800
9800
9800
9800
9800
9800
9800
ENDCHAR
STARTCHAR C001f
ENCODING 31
SWIDTH 666 0
DWIDTH 14 0
BBX 14 20 0 -5
BITMAP
0000
0000
0000
f800
9800
9800
9800
9800
9800
9800
9800
9800
9800
9800
9800
9800
9800
9800
9800
9800
ENDCHAR
STARTCHAR C0020
ENCODING 32
SWIDTH 666 0
DWIDTH 14 0
BBX 14 20 0 -5
BITMAP
0000
0000
0000
0000
0000
0000
0000
0000
0000
0000
0000
0000
0000
0000
0000
0000
0000
0000
0000
0000
ENDCHAR
STARTCHAR C0021
ENCODING 33
SWIDTH 666 0
DWIDTH 14 0
BBX 14 20 0 -5
BITMAP
0000
0000
0f80
0980
0980
0980
0980
0980
0980
0980
0980
0980
0f80
0f80
0980
0980
0f80
0000
0000
0000
ENDCHAR
STARTCHAR C0022
ENCODING 34
SWIDTH 666 0
DWIDTH 14 0
BBX 14 20 0 -5
BITMAP
0000
0000
1fe0
1260
1260
1260
1260
1260
1fe0
0000
0000
0000
0000
0000
0000
0000
0000
0000
0000
0000
ENDCHAR
STARTCHAR C0023
ENCODING 35
SWIDTH 666 0
DWIDTH 14 0
BBX 14 20 0 -5
BITMAP
0000
0000
0ff0
0930
7938
4018
4018
7278
1260
1260
7278
4018
4018
64f8
24c0
24c0
3fc0
0000
0000
0000
ENDCHAR
STARTCHAR C0024
ENCODING 36
SWIDTH 666 0
DWIDTH 14 0
BBX 14 20 0 -5
BITMAP
0000
0000
0fc0
3af0
6038
4018
4a98
4af8
4038
6018
3a98
7a98
4a98
4018
6038
3af0
0fc0
0000
0000
0000
ENDCHAR
STARTCHAR C0025
ENCODING 37
SWIDTH 666 0
DWIDTH 14 0
BBX 14 20 0 -5
BITMAP
0000
0000
1e00
3778
63d8
4998
6318
3638
1c70
18e0
31e0
6370
4638
4c98
7e38
0370
01e0
0000
0000
0000
ENDCHAR
STARTCHAR C0026
ENCODING 38
SWIDTH 666 0
DWIDTH 14 0
BBX 14 20 0 -5
BITMAP
0000
0000
1f80
31c0
60e0
4e60
4e60
4e60
60e0
31f8
6098
4e18
4f38
4e18
4018
6098
3ff8
0000
0000
0000
ENDCHAR
STARTCHAR C0027
ENCODING 39
SWIDTH 666 0
DWIDTH 14 0
BBX 14 20 0 -5
BITMAP
0000
0000
0f80
0980
0980
0980
0980
0980
0f80
0000
0000
0000
0000
0000
0000
0000
0000
0000
0000
0000
ENDCHAR
STARTCHAR C0028
ENCODING 40
SWIDTH 666 0
DWIDTH 14 0
BBX 14 20 0 -5
BITMAP
0000
0000
03e0
0660
0ce0
09c0
1980
1380
1300
1300
1300
1380
1980
09c0
0ce0
0660
03e0
0000
0000
0000
ENDCHAR
STARTCHAR C0029
ENCODING 41
SWIDTH 666 0
DWIDTH 14 0
BBX 14 20 0 -5
BITMAP
0000
0000
1f00
1380
19c0
0cc0
04e0
0660
0260
0260
0260
0660
04e0
0cc0
19c0
1380
1f00
0000
0000
0000
ENDCHAR
STARTCHAR C002a
ENCODING 42
SWIDTH 666 0
DWIDTH 14 0
BBX 14 20 0 -5
BITMAP
0000
0000
0000
0000
0f80
79f0
4930
4030
6070
30e0
6070
4030
4930
79f0
0f80
0000
0000
0000
0000
0000
ENDCHAR
STARTCHAR C002b
ENCODING 43
SWIDTH 666 0
DWIDTH 14 0
BBX 14 20 0 -5
BITMAP
0000
0000
0000
0000
0000
0f80
0980
0980
79f0
4030
4030
79f0
0980
0980
0f80
0000
0000
0000
0000
0000
ENDCHAR
STARTCHAR C002c
ENCODING 44
SWIDTH 666 0
DWIDTH 14 0
BBX 14 20 0 -5
BITMAP
0000
0000
0000
0000
0000
0000
0000
0000
0000
0000
0000
0000
0000
1f80
1180
1180
1980
1380
1700
1e00
ENDCHAR
STARTCHAR C002d
ENCODING 45
SWIDTH 666 0
DWIDTH 14 0
BBX 14 20 0 -5
BITMAP
0000
0000
0000
0000
0000
0000
0000
0000
7ff8
4018
4018
7ff8
0000
0000
0000
0000
0000
0000
0000
0000
ENDCHAR
STARTCHAR C002e
ENCODING 46
SWIDTH 666 0
DWIDTH 14 0
BBX 14 20 0 -5
BITMAP
0000
0000
0000
0000
0000
0000
0000
0000
0000
0000
0000
0000
0000
0f80
0980
0980
0f80
0000
0000
0000
ENDCHAR
STARTCHAR C002f
ENCODING 47
SWIDTH 666 0
DWIDTH 14 0
BBX 14 20 0 -5
BITMAP
0000
0000
0000
0078
00d8
0198
0318
0638
0c70
18e0
31c0
6380
4700
4e00
5c00
7800
0000
0000
0000
0000
ENDCHAR
STARTCHAR C0030
ENCODING 48
SWIDTH 666 0
DWIDTH 14 0
BBX 14 20 0 -5
BITMAP
0000
0000
1fe0
3070
6038
4718
4f98
4f98
4d98
4d98
4f98
4c98
4f98
4718
6038
3070
1fe0
0000
0000
0000
ENDCHAR
STARTCHAR C0031
ENCODING 49
SWIDTH 666 0
DWIDTH 14 0
BBX 14 20 0 -5
BITMAP
0000
0000
07e0
0c60
1860
3060
6260
4660
7e60
0260
0260
0260
0260
0260
0260
0260
03e0
0000
0000
0000
ENDCHAR
STARTCHAR C0032
ENCODING 50
SWIDTH 666 0
DWIDTH 14 0
BBX 14 20 0 -5
BITMAP
0000
0000
1fe0
3070
6038
4718
7f98
0318
0638
0c70
18e0
31c0
6380
47f8
4018
4018
7ff8
0000
0000
0000
ENDCHAR
STARTCHAR C0033
ENCODING 51
SWIDTH 666 0
DWIDTH 14 0
BBX 14 20 0 -5
BITMAP
0000
0000
1fe0
3070
6038
4718
7f98
0f18
0838
0838
0f18
0198
7f98
4718
6038
3070
1fe0
0000
0000
0000
ENDCHAR
STARTCHAR C0034
ENCODING 52
SWIDTH 666 0
DWIDTH 14 0
BBX 14 20 0 -5
BITMAP
0000
0000
03e0
0660
0c60
18e0
31c0
63e0
4660
4e60
4e78
4018
4018
7e78
0260
0260
03e0
0000
0000
0000
ENDCHAR
STARTCHAR C0035
ENCODING 53
SWIDTH 666 0
DWIDTH 14 0
BBX 14 20 0 -5
BITMAP
0000
0000
3ff0
2030
2030
27f0
2600
27e0
2070
2038
3f18
0198
7f98
4718
6038
3070
1fe0
0000
0000
0000
ENDCHAR
STARTCHAR C0036
ENCODING 54
SWIDTH 666 0
DWIDTH 14 0
BBX 14 20 0 -5
BITMAP
0000
0000
1fe0
3070
6038
4718
4ff8
4fe0
4070
4038
4718
4f98
4f98
4718
6038
3070
1fe0
0000
0000
0000
ENDCHAR
STARTCHAR C0037
ENCODING 55
SWIDTH 666 0
DWIDTH 14 0
BBX 14 20 0 -5
BITMAP
0000
0000
7ff8
4018
4018
7f98
0118
0338
0230
0670
0460
0ce0
08c0
09c0
0980
0980
0f80
0000
0000
0000
ENDCHAR
STARTCHAR C0038
ENCODING 56
SWIDTH 666 0
DWIDTH 14 0
BBX 14 20 0 -5
BITMAP
0000
0000
1fe0
3070
6038
4718
4f98
4718
6038
6038
4718
4f98
4f98
4718
6038
3070
1fe0
0000
0000
0000
ENDCHAR
STARTCHAR C0039
ENCODING 57
SWIDTH 666 0
DWIDTH 14 0
BBX 14 20 0 -5
BITMAP
0000
0000
1fe0
3070
6038
4718
4f98
4f98
4718
6018
3018
1f98
7f98
4718
6038
3070
1fe0
0000
0000
0000
ENDCHAR
STARTCHAR C003a
ENCODING 58
SWIDTH 666 0
DWIDTH 14 0
BBX 14 20 0 -5
BITMAP
0000
0000
0000
0000
0000
0000
0000
0000
0f80
0980
0980
0f80
0000
0f80
0980
0980
0f80
0000
0000
0000
ENDCHAR
STARTCHAR C003b
ENCODING 59
SWIDTH 666 0
DWIDTH 14 0
BBX 14 20 0 -5
BITMAP
0000
0000
0000
0000
0000
0000
0000
0000
0f80
0980
0980
0f80
0000
0f80
0980
0980
1980
1380
1700
1e00
ENDCHAR
STARTCHAR C003c
ENCODING 60
SWIDTH 666 0
DWIDTH 14 0
BBX 14 20 0 -5
BITMAP
0000
0000
0000
0000
0000
03e0
0660
0c60
18e0
31c0
2380
31c0
18e0
0c60
0660
03e0
0000
0000
0000
0000
ENDCHAR
STARTCHAR C003d
ENCODING 61
SWIDTH 666 0
DWIDTH 14 0
BBX 14 20 0 -5
BITMAP
0000
0000
0000
0000
0000
0000
0000
3ff0
2030
2030
3ff0
2030
2030
3ff0
0000
0000
0000
0000
0000
0000
ENDCHAR
STARTCHAR C003e
ENCODING 62
SWIDTH 666 0
DWIDTH 14 0
BBX 14 20 0 -5
BITMAP
0000
0000
0000
0000
0000
1f00
1380
11c0
18e0
0c70
0630
0c70
18e0
11c0
1380
1f00
0000
0000
0000
0000
ENDCHAR
STARTCHAR C003f
ENCODING 63
SWIDTH 666 0
DWIDTH 14 0
BBX 14 20 0 -5
BITMAP
0000
0000
1fc0
30e0
6070
4630
4f30
4f30
7e30
0c70
08e0
09c0
0980
0f80
0980
0980
0f80
0000
0000
0000
ENDCHAR
STARTCHAR C0040
ENCODING 64
SWIDTH 666 0
DWIDTH 14 0
BBX 14 20 0 -5
BITMAP
0000
0000
1fe0
3070
6038
cf98
9fd8
9858
9258
9258
9258
9258
9818
8ff8
c018
6018
3ff8
0000
0000
0000
ENDCHAR
STARTCHAR C0041
ENCODING 65
SWIDTH 666 0
DWIDTH 14 0
BBX 14 20 0 -5
BITMAP
0000
0000
0fc0
08c0
18e0
1060
3270
2730
6738
4718
4018
4018
4f98
4c98
4c98
4c98
7cf8
0000
0000
0000
ENDCHAR
STARTCHAR C0042
ENCODING 66
SWIDTH 666 0
DWIDTH 14 0
BBX 14 20 0 -5
BITMAP
0000
0000
7fe0
4070
4038
4f18
4d98
4f18
4038
4038
4f18
4d98
4d98
4f18
4038
4070
7fe0
0000
0000
0000
ENDCHAR
STARTCHAR C0043
ENCODING 67
SWIDTH 666 0
DWIDTH 14 0
BBX 14 20 0 -5
BITMAP
0000
0000
0fe0
1870
3038
2318
6798
46f8
4e00
4c00
4e00
46f8
6798
2318
3038
1870
0fe0
0000
0000
0000
ENDCHAR
STARTCHAR C0044
ENCODING 68
SWIDTH 666 0
DWIDTH 14 0
BBX 14 20 0 -5
BITMAP
0000
0000
7fc0
40e0
4070
4e30
4f38
4d18
4d98
4c98
4d98
4d18
4f38
4e30
4070
40e0
7fc0
0000
0000
0000
ENDCHAR
STARTCHAR C0045
ENCODING 69
SWIDTH 666 0
DWIDTH 14 0
BBX 14 20 0 -5
BITMAP
0000
0000
7ff8
4018
4018
4ff8
4c00
4fc0
40c0
40c0
4fc0
4c00
4c00
4ff8
4018
4018
7ff8
0000
0000
0000
ENDCHAR
STARTCHAR C0046
ENCODING 70
SWIDTH 666 0
DWIDTH 14 0
BBX 14 20 0 -5
BITMAP
0000
0000
7ff8
4018
4018
4ff8
4c00
4fc0
40c0
40c0
4fc0
4c00
4c00
4c00
4c00
4c00
7c00
0000
0000
0000
ENDCHAR
STARTCHAR C0047
ENCODING 71
SWIDTH 666 0
DWIDTH 14 0
BBX 14 20 0 -5
BITMAP
0000
0000
0fe0
1870
3038
2318
6798
46f8
4ff8
4c18
4c18
4798
6798
2318
3038
1870
0fe0
0000
0000
0000
ENDCHAR
STARTCHAR C0048
ENCODING 72
SWIDTH 666 0
DWIDTH 14 0
BBX 14 20 0 -5
BITMAP
0000
0000
7cf8
4c98
4c98
4c98
4c98
4f98
4018
4018
4f98
4c98
4c98
4c98
4c98
4c98
7cf8
0000
0000
0000
ENDCHAR
STARTCHAR C0049
ENCODING 73
SWIDTH 666 0
DWIDTH 14 0
BBX 14 20 0 -5
BITMAP
0000
0000
3fe0
2060
2060
39e0
0980
0980
0980
0980
0980
0980
0980
39e0
2060
2060
3fe0
0000
0000
0000
ENDCHAR
STARTCHAR C004a
ENCODING 74
SWIDTH 666 0
DWIDTH 14 0
BBX 14 20 0 -5
BITMAP
0000
0000
03e0
0260
0260
0260
0260
0260
0260
0260
0260
7e60
4e60
4460
60e0
31c0
1f80
0000
0000
0000
ENDCHAR
STARTCHAR C004b
ENCODING 75
SWIDTH 666 0
DWIDTH 14 0
BBX 14 20 0 -5
BITMAP
0000
0000
7cf8
4d98
4f18
4e38
4c70
48e0
41c0
4380
41c0
48e0
4c70
4e38
4f18
4d98
7cf8
0000
0000
0000
ENDCHAR
STARTCHAR C004c
ENCODING 76
SWIDTH 666 0
DWIDTH 14 0
BBX 14 20 0 -5
BITMAP
0000
0000
7c00
4c00
4c00
4c00
4c00
4c00
4c00
4c00
4c00
4c00
4c00
4ff8
4018
4018
7ff8
0000
0000
0000
ENDCHAR
STARTCHAR C004d
ENCODING 77
SWIDTH 666 0
DWIDTH 14 0
BBX 14 20 0 -5
BITMAP
0000
0000
7878
5cd8
4f98
4718
4218
4018
4898
4d98
4f98
4c98
4c98
4c98
4c98
4c98
7cf8
0000
0000
0000
ENDCHAR
STARTCHAR C004e
ENCODING 78
SWIDTH 666 0
DWIDTH 14 0
BBX 14 20 0 -5
BITMAP
0000
0000
7ef8
4698
4798
4398
4398
4198
4998
4898
4c98
4c18
4e18
4e18
4f18
4d18
7df8
0000
0000
0000
ENDCHAR
STARTCHAR C004f
ENCODING 79
SWIDTH 666 0
DWIDTH 14 0
BBX 14 20 0 -5
BITMAP
0000
0000
1fe0
3070
2030
6738
4f98
4c98
4c98
4c98
4c98
4c98
4f98
6738
2030
3070
1fe0
0000
0000
0000
ENDCHAR
STARTCHAR C0050
ENCODING 80
SWIDTH 666 0
DWIDTH 14 0
BBX 14 20 0 -5
BITMAP
0000
0000
7fe0
4070
4038
4f18
4d98
4d98
4f18
4038
4070
4fe0
4c00
4c00
4c00
4c00
7c00
0000
0000
0000
ENDCHAR
STARTCHAR C0051
ENCODING 81
SWIDTH 666 0
DWIDTH 14 0
BBX 14 20 0 -5
BITMAP
0000
0000
1fe0
3070
2038
6718
4f98
4c98
4c98
4c98
4f98
4c98
4c18
4638
6018
3098
1ff8
0000
0000
0000
ENDCHAR
STARTCHAR C0052
ENCODING 82
SWIDTH 666 0
DWIDTH 14 0
BBX 14 20 0 -5
BITMAP
0000
0000
7fe0
4070
4038
4f18
4d98
4d98
4f18
4038
4070
48e0
4c70
4e38
4f18
4d98
7cf8
0000
0000
0000
ENDCHAR
STARTCHAR C0053
ENCODING 83
SWIDTH 666 0
DWIDTH 14 0
BBX 14 20 0 -5
BITMAP
0000
0000
1fe0
3070
6038
4718
4f98
47f8
6070
3038
1f18
7d98
4f98
4718
6038
3070
1fe0
0000
0000
0000
ENDCHAR
STARTCHAR C0054
ENCODING 84
SWIDTH 666 0
DWIDTH 14 0
BBX 14 20 0 -5
BITMAP
0000
0000
7ff0
4030
4030
79f0
0980
0980
0980
0980
0980
0980
0980
0980
0980
0980
0f80
0000
0000
0000
ENDCHAR
STARTCHAR C0055
ENCODING 85
SWIDTH 666 0
DWIDTH 14 0
BBX 14 20 0 -5
BITMAP
0000
0000
7cf8
4c98
4c98
4c98
4c98
4c98
4c98
4c98
4c98
4c98
4f98
4718
6038
3070
1fe0
0000
0000
0000
ENDCHAR
STARTCHAR C0056
ENCODING 86
SWIDTH 666 0
DWIDTH 14 0
BBX 14 20 0 -5
BITMAP
0000
0000
7cf8
4c98
4c98
4f98
4718
6738
2730
2230
3270
1260
1060
18e0
08c0
08c0
0fc0
0000
0000
0000
ENDCHAR
STARTCHAR C0057
ENCODING 87
SWIDTH 666 0
DWIDTH 14 0
BBX 14 20 0 -5
BITMAP
0000
0000
7cf8
4c98
4c98
4c98
4c98
4c98
4c98
4f98
4d98
4898
4018
4218
4718
4f98
7cf8
0000
0000
0000
ENDCHAR
STARTCHAR C0058
ENCODING 88
SWIDTH 666 0
DWIDTH 14 0
BBX 14 20 0 -5
BITMAP
0000
0000
7cf8
4c98
4f98
4718
6738
2230
3070
18e0
3070
2230
6738
4718
4f98
4c98
7cf8
0000
0000
0000
ENDCHAR
STARTCHAR C0059
ENCODING 89
SWIDTH 666 0
DWIDTH 14 0
BBX 14 20 0 -5
BITMAP
0000
0000
7df0
4d30
4f30
4630
6670
2060
30e0
10c0
19c0
0980
0980
0980
0980
0980
0f80
0000
0000
0000
ENDCHAR
STARTCHAR C005a
ENCODING 90
SWIDTH 666 0
DWIDTH 14 0
BBX 14 20 0 -5
BITMAP
0000
0000
7ff8
4018
4018
7f98
0318
0638
0c70
18e0
31c0
6380
4700
4ff8
4018
4018
7ff8
0000
0000
0000
ENDCHAR
STARTCHAR C005b
ENCODING 91
SWIDTH 666 0
DWIDTH 14 0
BBX 14 20 0 -5
BITMAP
0000
0000
1fe0
1060
1060
13e0
1300
1300
1300
1300
1300
1300
1300
1300
13e0
1060
1060
1fe0
0000
0000
ENDCHAR
STARTCHAR C005c
ENCODING 92
SWIDTH 666 0
DWIDTH 14 0
BBX 14 20 0 -5
BITMAP
0000
0000
0000
7800
5c00
4e00
4700
6380
31c0
18e0
0c70
0638
0318
0198
00d8
0078
0000
0000
0000
0000
ENDCHAR
STARTCHAR C005d
ENCODING 93
SWIDTH 666 0
DWIDTH 14 0
BBX 14 20 0 -5
BITMAP
0000
0000
1fe0
1060
1060
1e60
0260
0260
0260
0260
0260
0260
0260
0260
1e60
1060
1060
1fe0
0000
0000
ENDCHAR
STARTCHAR C005e
ENCODING 94
SWIDTH 666 0
DWIDTH 14 0
BBX 14 20 0 -5
BITMAP
0000
0000
0780
18e0
3070
2230
2730
3ff0
0000
0000
0000
0000
0000
0000
0000
0000
0000
0000
0000
0000
ENDCHAR
STARTCHAR C005f
ENCODING 95
SWIDTH 666 0
DWIDTH 14 0
BBX 14 20 0 -5
BITMAP
0000
0000
0000
0000
0000
0000
0000
0000
0000
0000
0000
0000
0000
3ff0
2030
2030
3ff0
0000
0000
0000
ENDCHAR
STARTCHAR C0060
ENCODING 96
SWIDTH 666 0
DWIDTH 14 0
BBX 14 20 0 -5
BITMAP
0000
0000
1f00
1380
11c0
18e0
0c60
0660
03e0
0000
0000
0000
0000
0000
0000
0000
0000
0000
0000
0000
ENDCHAR
STARTCHAR C0061
ENCODING 97
SWIDTH 666 0
DWIDTH 14 0
BBX 14 20 0 -5
BITMAP
0000
0000
0000
0000
0000
0000
1ff8
3098
6018
4718
4f98
4c98
4f98
4718
6018
3098
1ff8
0000
0000
0000
ENDCHAR
STARTCHAR C0062
ENCODING 98
SWIDTH 666 0
DWIDTH 14 0
BBX 14 20 0 -5
BITMAP
0000
0000
7c00
4c00
4c00
4c00
4fe0
4070
4038
4f18
4d98
4c98
4d98
4f18
4038
4070
7fe0
0000
0000
0000
ENDCHAR
STARTCHAR C0063
ENCODING 99
SWIDTH 666 0
DWIDTH 14 0
BBX 14 20 0 -5
BITMAP
0000
0000
0000
0000
0000
0000
1fe0
3070
6038
4718
4ff8
4c00
4ff8
4718
6038
3070
1fe0
0000
0000
0000
ENDCHAR
STARTCHAR C0064
ENCODING 100
SWIDTH 666 0
DWIDTH 14 0
BBX 14 20 0 -5
BITMAP
0000
0000
00f8
0098
0098
0098
1f98
3098
6018
4718
4f98
4c98
4f98
4718
6018
3098
1ff8
0000
0000
0000
ENDCHAR
STARTCHAR C0065
ENCODING 101
SWIDTH 666 0
DWIDTH 14 0
BBX 14 20 0 -5
BITMAP
0000
0000
0000
0000
0000
0000
1fe0
3070
6038
4718
4018
4018
4ff8
4718
6038
3070
1fe0
0000
0000
0000
ENDCHAR
STARTCHAR C0066
ENCODING 102
SWIDTH 666 0
DWIDTH 14 0
BBX 14 20 0 -5
BITMAP
0000
0000
07f0
0c38
0818
0998
39f8
2060
2060
39e0
0980
0980
0980
0980
0980
0980
0f80
0000
0000
0000
ENDCHAR
STARTCHAR C0067
ENCODING 103
SWIDTH 666 0
DWIDTH 14 0
BBX 14 20 0 -5
BITMAP
0000
0000
0000
0000
0000
0000
1ff8
3098
6018
4718
4f98
4f98
4718
6018
3018
7f98
4718
6038
3070
1fe0
ENDCHAR
STARTCHAR C0068
ENCODING 104
SWIDTH 666 0
DWIDTH 14 0
BBX 14 20 0 -5
BITMAP
0000
0000
7c00
4c00
4c00
4c00
4fe0
4870
4038
4718
4f98
4c98
4c98
4c98
4c98
4c98
7cf8
0000
0000
0000
ENDCHAR
STARTCHAR C0069
ENCODING 105
SWIDTH 666 0
DWIDTH 14 0
BBX 14 20 0 -5
BITMAP
0000
0000
07c0
04c0
04c0
07c0
1fc0
10c0
10c0
1cc0
04c0
04c0
04c0
04c0
04c0
04c0
07c0
0000
0000
0000
ENDCHAR
STARTCHAR C006a
ENCODING 106
SWIDTH 666 0
DWIDTH 14 0
BBX 14 20 0 -5
BITMAP
0000
0000
03e0
0260
0260
03e0
0ff0
0830
0830
0f30
0130
0130
0130
0130
7d30
4f30
4630
6070
30e0
1fc0
ENDCHAR
STARTCHAR C006b
ENCODING 107
SWIDTH 666 0
DWIDTH 14 0
BBX 14 20 0 -5
BITMAP
0000
0000
3e00
2600
2600
2600
27f0
2730
2630
2470
20e0
21c0
20e0
2470
2630
2730
3ff0
0000
0000
0000
ENDCHAR
STARTCHAR C006c
ENCODING 108
SWIDTH 666 0
DWIDTH 14 0
BBX 14 20 0 -5
BITMAP
0000
0000
1f00
1300
1300
1300
1300
1300
1300
1300
1300
1300
1300
13e0
1060
1860
0fe0
0000
0000
0000
ENDCHAR
STARTCHAR C006d
ENCODING 109
SWIDTH 666 0
DWIDTH 14 0
BBX 14 20 0 -5
BITMAP
0000
0000
0000
0000
0000
0000
7ff8
431c
400c
4ccc
4ccc
4ccc
4ccc
4ccc
4ccc
4ccc
7ffc
0000
0000
0000
ENDCHAR
STARTCHAR C006e
ENCODING 110
SWIDTH 666 0
DWIDTH 14 0
BBX 14 20 0 -5
BITMAP
0000
0000
0000
0000
0000
0000
7fe0
4870
4038
4718
4f98
4c98
4c98
4c98
4c98
4c98
7cf8
0000
0000
0000
ENDCHAR
STARTCHAR C006f
ENCODING 111
SWIDTH 666 0
DWIDTH 14 0
BBX 14 20 0 -5
BITMAP
0000
0000
0000
0000
0000
0000
1fe0
3070
6038
4718
4f98
4c98
4f98
4718
6038
3070
1fe0
0000
0000
0000
ENDCHAR
STARTCHAR C0070
ENCODING 112
SWIDTH 666 0
DWIDTH 14 0
BBX 14 20 0 -5
BITMAP
0000
0000
0000
0000
0000
0000
7fe0
4870
4038
4718
4f98
4c98
4f98
4718
4038
4870
4fe0
4c00
4c00
7c00
ENDCHAR
STARTCHAR C0071
ENCODING 113
SWIDTH 666 0
DWIDTH 14 0
BBX 14 20 0 -5
BITMAP
0000
0000
0000
0000
0000
0000
1ff8
3098
6018
4718
4f98
4c98
4f98
4718
6018
3098
1f98
0098
0098
00f8
ENDCHAR
STARTCHAR C0072
ENCODING 114
SWIDTH 666 0
DWIDTH 14 0
BBX 14 20 0 -5
BITMAP
0000
0000
0000
0000
0000
0000
3ff0
2438
2018
2398
27f8
2600
2600
2600
2600
2600
3e00
0000
0000
0000
ENDCHAR
STARTCHAR C0073
ENCODING 115
SWIDTH 666 0
DWIDTH 14 0
BBX 14 20 0 -5
BITMAP
0000
0000
0000
0000
0000
0000
3ff0
6038
4018
4f98
41f8
6038
7c18
4f98
4018
6038
3ff0
0000
0000
0000
ENDCHAR
STARTCHAR C0074
ENCODING 116
SWIDTH 666 0
DWIDTH 14 0
BBX 14 20 0 -5
BITMAP
0000
0000
0f80
0980
0980
0980
39e0
2060
2060
39e0
0980
0980
0980
09f0
0830
0c30
07f0
0000
0000
0000
ENDCHAR
STARTCHAR C0075
ENCODING 117
SWIDTH 666 0
DWIDTH 14 0
BBX 14 20 0 -5
BITMAP
0000
0000
0000
0000
0000
0000
7cf8
4c98
4c98
4c98
4c98
4c98
4f98
4718
6018
3098
1ff8
0000
0000
0000
ENDCHAR
STARTCHAR C0076
ENCODING 118
SWIDTH 666 0
DWIDTH 14 0
BBX 14 20 0 -5
BITMAP
0000
0000
0000
0000
0000
0000
7cf8
4c98
4f98
4718
6738
2230
3270
1060
18e0
08c0
0fc0
0000
0000
0000
ENDCHAR
STARTCHAR C0077
ENCODING 119
SWIDTH 666 0
DWIDTH 14 0
BBX 14 20 0 -5
BITMAP
0000
0000
0000
0000
0000
0000
7cf8
4c98
4c98
4c98
4f98
4d98
4898
4018
6238
3770
1fe0
0000
0000
0000
ENDCHAR
STARTCHAR C0078
ENCODING 120
SWIDTH 666 0
DWIDTH 14 0
BBX 14 20 0 -5
BITMAP
0000
0000
0000
0000
0000
0000
7cf8
4f98
4718
6238
3070
18e0
3070
6238
4718
4f98
7cf8
0000
0000
0000
ENDCHAR
STARTCHAR C0079
ENCODING 121
SWIDTH 666 0
DWIDTH 14 0
BBX 14 20 0 -5
BITMAP
0000
0000
0000
0000
0000
0000
7cf8
4c98
4f98
4718
6738
2230
3270
1060
18e0
08c0
79c0
4180
4380
7f00
ENDCHAR
STARTCHAR C007a
ENCODING 122
SWIDTH 666 0
DWIDTH 14 0
BBX 14 20 0 -5
BITMAP
0000
0000
0000
0000
0000
0000
7ff8
4018
4018
7e38
0c70
18e0
31c0
63f8
4018
4018
7ff8
0000
0000
0000
ENDCHAR
STARTCHAR C007b
ENCODING 123
SWIDTH 666 0
DWIDTH 14 0
BBX 14 20 0 -5
BITMAP
0000
0000
07e0
0c60
09e0
0980
0980
0980
0980
3980
2380
3980
0980
0980
0980
0980
09e0
0c60
07e0
0000
ENDCHAR
STARTCHAR C007c
ENCODING 124
SWIDTH 666 0
DWIDTH 14 0
BBX 14 20 0 -5
BITMAP
0000
0000
07c0
04c0
04c0
04c0
04c0
04c0
04c0
04c0
04c0
04c0
04c0
04c0
04c0
04c0
07c0
0000
0000
0000
ENDCHAR
STARTCHAR C007d
ENCODING 125
SWIDTH 666 0
DWIDTH 14 0
BBX 14 20 0 -5
BITMAP
0000
0000
1f80
11c0
1cc0
04c0
04c0
04c0
04c0
04f0
0630
04f0
04c0
04c0
04c0
04c0
1cc0
11c0
1f80
0000
ENDCHAR
STARTCHAR C007e
ENCODING 126
SWIDTH 666 0
DWIDTH 14 0
BBX 14 20 0 -5
BITMAP
0000
0000
1ff8
6198
4c38
4e70
7fe0
0000
0000
0000
0000
0000
0000
0000
0000
0000
0000
0000
0000
0000
ENDCHAR
STARTCHAR C007f
ENCODING 127
SWIDTH 666 0
DWIDTH 14 0
BBX 14 20 0 -5
BITMAP
0000
0000
1ff8
6198
4c38
4e70
7fe0
0000
0000
0000
0000
0000
0000
0000
0000
0000
0000
0000
0000
0000
ENDCHAR
STARTCHAR C0080
ENCODING 128
SWIDTH 666 0
DWIDTH 14 0
BBX 14 20 0 -5
BITMAP
0000
0000
1ff8
6198
4c38
4e70
7fe0
0000
0000
0000
0000
0000
0000
0000
0000
0000
0000
0000
0000
0000
ENDCHAR
STARTCHAR C0081
ENCODING 129
SWIDTH 666 0
DWIDTH 14 0
BBX 14 20 0 -5
BITMAP
0000
0000
1ff8
6198
4c38
4e70
7fe0
0000
0000
0000
0000
0000
0000
0000
0000
0000
0000
0000
0000
0000
ENDCHAR
STARTCHAR C0082
ENCODING 130
SWIDTH 666 0
DWIDTH 14 0
BBX 14 20 0 -5
BITMAP
0000
0000
1ff8
6198
4c38
4e70
7fe0
0000
0000
0000
0000
0000
0000
0000
0000
0000
0000
0000
0000
0000
ENDCHAR
STARTCHAR C0083
ENCODING 131
SWIDTH 666 0
DWIDTH 14 0
BBX 14 20 0 -5
BITMAP
0000
0000
1ff8
6198
4c38
4e70
7fe0
0000
0000
0000
0000
0000
0000
0000
0000
0000
0000
0000
0000
0000
ENDCHAR
STARTCHAR C0084
ENCODING 132
SWIDTH 666 0
DWIDTH 14 0
BBX 14 20 0 -5
BITMAP
0000
0000
1ff8
6198
4c38
4e70
7fe0
0000
0000
0000
0000
0000
0000
0000
0000
0000
0000
0000
0000
0000
ENDCHAR
STARTCHAR C0085
ENCODING 133
SWIDTH 666 0
DWIDTH 14 0
BBX 14 20 0 -5
BITMAP
0000
0000
1ff8
6198
4c38
4e70
7fe0
0000
0000
0000
0000
0000
0000
0000
0000
0000
0000
0000
0000
0000
ENDCHAR
STARTCHAR C0086
ENCODING 134
SWIDTH 666 0
DWIDTH 14 0
BBX 14 20 0 -5
BITMAP
0000
0000
1ff8
6198
4c38
4e70
7fe0
0000
0000
0000
0000
0000
0000
0000
0000
0000
0000
0000
0000
0000
ENDCHAR
STARTCHAR C0087
ENCODING 135
SWIDTH 666 0
DWIDTH 14 0
BBX 14 20 0 -5
BITMAP
0000
0000
1ff8
6198
4c38
4e70
7fe0
0000
0000
0000
0000
0000
0000
0000
0000
0000
0000
0000
0000
0000
ENDCHAR
STARTCHAR C0088
ENCODING 136
SWIDTH 666 0
DWIDTH 14 0
BBX 14 20 0 -5
BITMAP
0000
0000
1ff8
6198
4c38
4e70
7fe0
0000
0000
0000
0000
0000
0000
0000
0000
0000
0000
0000
0000
0000
ENDCHAR
STARTCHAR C0089
ENCODING 137
SWIDTH 666 0
DWIDTH 14 0
BBX 14 20 0 -5
BITMAP
0000
0000
1ff8
6198
4c38
4e70
7fe0
0000
0000
0000
0000
0000
0000
0000
0000
0000
0000
0000
0000
0000
ENDCHAR
STARTCHAR C008a
ENCODING 138
SWIDTH 666 0
DWIDTH 14 0
BBX 14 20 0 -5
BITMAP
0000
0000
1ff8
6198
4c38
4e70
7fe0
0000
0000
0000
0000
0000
0000
0000
0000
0000
0000
0000
0000
0000
ENDCHAR
STARTCHAR C008b
ENCODING 139
SWIDTH 666 0
DWIDTH 14 0
BBX 14 20 0 -5
BITMAP
0000
0000
1ff8
6198
4c38
4e70
7fe0
0000
0000
0000
0000
0000
0000
0000
0000
0000
0000
0000
0000
0000
ENDCHAR
STARTCHAR C008c
ENCODING 140
SWIDTH 666 0
DWIDTH 14 0
BBX 14 20 0 -5
BITMAP
0000
0000
1ff8
6198
4c38
4e70
7fe0
0000
0000
0000
0000
0000
0000
0000
0000
0000
0000
0000
0000
0000
ENDCHAR
STARTCHAR C008d
ENCODING 141
SWIDTH 666 0
DWIDTH 14 0
BBX 14 20 0 -5
BITMAP
0000
0000
1ff8
6198
4c38
4e70
7fe0
0000
0000
0000
0000
0000
0000
0000
0000
0000
0000
0000
0000
0000
ENDCHAR
STARTCHAR C008e
ENCODING 142
SWIDTH 666 0
DWIDTH 14 0
BBX 14 20 0 -5
BITMAP
0000
0000
1ff8
6198
4c38
4e70
7fe0
0000
0000
0000
0000
0000
0000
0000
0000
0000
0000
0000
0000
0000
ENDCHAR
STARTCHAR C008f
ENCODING 143
SWIDTH 666 0
DWIDTH 14 0
BBX 14 20 0 -5
BITMAP
0000
0000
1ff8
6198
4c38
4e70
7fe0
0000
0000
0000
0000
0000
0000
0000
0000
0000
0000
0000
0000
0000
ENDCHAR
STARTCHAR C0090
ENCODING 144
SWIDTH 666 0
DWIDTH 14 0
BBX 14 20 0 -5
BITMAP
0000
0000
1ff8
6198
4c38
4e70
7fe0
0000
0000
0000
0000
0000
0000
0000
0000
0000
0000
0000
0000
0000
ENDCHAR
STARTCHAR C0091
ENCODING 145
SWIDTH 666 0
DWIDTH 14 0
BBX 14 20 0 -5
BITMAP
0000
0000
1ff8
6198
4c38
4e70
7fe0
0000
0000
0000
0000
0000
0000
0000
0000
0000
0000
0000
0000
0000
ENDCHAR
STARTCHAR C0092
ENCODING 146
SWIDTH 666 0
DWIDTH 14 0
BBX 14 20 0 -5
BITMAP
0000
0000
1ff8
6198
4c38
4e70
7fe0
0000
0000
0000
0000
0000
0000
0000
0000
0000
0000
0000
0000
0000
ENDCHAR
STARTCHAR C0093
ENCODING 147
SWIDTH 666 0
DWIDTH 14 0
BBX 14 20 0 -5
BITMAP
0000
0000
1ff8
6198
4c38
4e70
7fe0
0000
0000
0000
0000
0000
0000
0000
0000
0000
0000
0000
0000
0000
ENDCHAR
STARTCHAR C0094
ENCODING 148
SWIDTH 666 0
DWIDTH 14 0
BBX 14 20 0 -5
BITMAP
0000
0000
1ff8
6198
4c38
4e70
7fe0
0000
0000
0000
0000
0000
0000
0000
0000
0000
0000
0000
0000
0000
ENDCHAR
STARTCHAR C0095
ENCODING 149
SWIDTH 666 0
DWIDTH 14 0
BBX 14 20 0 -5
BITMAP
0000
0000
1ff8
6198
4c38
4e70
7fe0
0000
0000
0000
0000
0000
0000
0000
0000
0000
0000
0000
0000
0000
ENDCHAR
STARTCHAR C0096
ENCODING 150
SWIDTH 666 0
DWIDTH 14 0
BBX 14 20 0 -5
BITMAP
0000
0000
1ff8
6198
4c38
4e70
7fe0
0000
0000
0000
0000
0000
0000
0000
0000
0000
0000
0000
0000
0000
ENDCHAR
STARTCHAR C0097
ENCODING 151
SWIDTH 666 0
DWIDTH 14 0
BBX 14 20 0 -5
BITMAP
0000
0000
1ff8
6198
4c38
4e70
7fe0
0000
0000
0000
0000
0000
0000
0000
0000
0000
0000
0000
0000
0000
ENDCHAR
STARTCHAR C0098
ENCODING 152
SWIDTH 666 0
DWIDTH 14 0
BBX 14 20 0 -5
BITMAP
0000
0000
1ff8
6198
4c38
4e70
7fe0
0000
0000
0000
0000
0000
0000
0000
0000
0000
0000
0000
0000
0000
ENDCHAR
STARTCHAR C0099
ENCODING 153
SWIDTH 666 0
DWIDTH 14 0
BBX 14 20 0 -5
BITMAP
0000
0000
1ff8
6198
4c38
4e70
7fe0
0000
0000
0000
0000
0000
0000
0000
0000
0000
0000
0000
0000
0000
ENDCHAR
STARTCHAR C009a
ENCODING 154
SWIDTH 666 0
DWIDTH 14 0
BBX 14 20 0 -5
BITMAP
0000
0000
1ff8
6198
4c38
4e70
7fe0
0000
0000
0000
0000
0000
0000
0000
0000
0000
0000
0000
0000
0000
ENDCHAR
STARTCHAR C009b
ENCODING 155
SWIDTH 666 0
DWIDTH 14 0
BBX 14 20 0 -5
BITMAP
0000
0000
1ff8
6198
4c38
4e70
7fe0
0000
0000
0000
0000
0000
0000
0000
0000
0000
0000
0000
0000
0000
ENDCHAR
STARTCHAR C009c
ENCODING 156
SWIDTH 666 0
DWIDTH 14 0
BBX 14 20 0 -5
BITMAP
0000
0000
1ff8
6198
4c38
4e70
7fe0
0000
0000
0000
0000
0000
0000
0000
0000
0000
0000
0000
0000
0000
ENDCHAR
STARTCHAR C009d
ENCODING 157
SWIDTH 666 0
DWIDTH 14 0
BBX 14 20 0 -5
BITMAP
0000
0000
1ff8
6198
4c38
4e70
7fe0
0000
0000
0000
0000
0000
0000
0000
0000
0000
0000
0000
0000
0000
ENDCHAR
STARTCHAR C009e
ENCODING 158
SWIDTH 666 0
DWIDTH 14 0
BBX 14 20 0 -5
BITMAP
0000
0000
1ff8
6198
4c38
4e70
7fe0
0000
0000
0000
0000
0000
0000
0000
0000
0000
0000
0000
0000
0000
ENDCHAR
STARTCHAR C009f
ENCODING 159
SWIDTH 666 0
DWIDTH 14 0
BBX 14 20 0 -5
BITMAP
0000
0000
1ff8
6198
4c38
4e70
7fe0
0000
0000
0000
0000
0000
0000
0000
0000
0000
0000
0000
0000
0000
ENDCHAR
STARTCHAR C00a0
ENCODING 160
SWIDTH 666 0
DWIDTH 14 0
BBX 14 20 0 -5
BITMAP
0000
0000
1ff8
6198
4c38
4e70
7fe0
0000
0000
0000
0000
0000
0000
0000
0000
0000
0000
0000
0000
0000
ENDCHAR
STARTCHAR C00a1
ENCODING 161
SWIDTH 666 0
DWIDTH 14 0
BBX 14 20 0 -5
BITMAP
0000
0000
0f80
0980
0980
0f80
0f80
0980
0980
0980
0980
0980
0980
0980
0980
0980
0f80
0000
0000
0000
ENDCHAR
STARTCHAR C00a2
ENCODING 162
SWIDTH 666 0
DWIDTH 14 0
BBX 14 20 0 -5
BITMAP
0000
0000
0000
0000
0780
0580
1de0
3070
6038
4518
4df8
4d80
4df8
4518
6038
3070
1de0
0580
0780
0000
ENDCHAR
STARTCHAR C00a3
ENCODING 163
SWIDTH 666 0
DWIDTH 14 0
BBX 14 20 0 -5
BITMAP
0000
0000
0ff0
1838
1018
1398
33f8
2060
2060
33e0
1300
73c0
c0f0
8038
9218
c798
7ef8
0000
0000
0000
ENDCHAR
STARTCHAR C00a4
ENCODING 164
SWIDTH 666 0
DWIDTH 14 0
BBX 14 20 0 -5
BITMAP
0000
0000
0fc0
3af0
6038
4018
4a98
4af8
4038
6018
3a98
7a98
4a98
4018
6038
3af0
0fc0
0000
0000
0000
ENDCHAR
STARTCHAR C00a5
ENCODING 165
SWIDTH 666 0
DWIDTH 14 0
BBX 14 20 0 -5
BITMAP
0000
0000
7df0
4d30
4f30
4630
6670
2660
70f0
4030
79f0
4030
79f0
0980
0980
0980
0f80
0000
0000
0000
ENDCHAR
STARTCHAR C00a6
ENCODING 166
SWIDTH 666 0
DWIDTH 14 0
BBX 14 20 0 -5
BITMAP
0000
0000
0ff0
0930
7938
4018
4018
7278
1260
1260
7278
4018
4018
64f8
24c0
24c0
3fc0
0000
0000
0000
ENDCHAR
STARTCHAR C00a7
ENCODING 167
SWIDTH 666 0
DWIDTH 14 0
BBX 14 20 0 -5
BITMAP
0000
0000
3ff0
6038
4018
4f98
47f8
6038
4018
4f98
4018
6038
7f18
4f98
4018
6038
3ff0
0000
0000
0000
ENDCHAR
STARTCHAR C00a8
ENCODING 168
SWIDTH 666 0
DWIDTH 14 0
BBX 14 20 0 -5
BITMAP
0000
0000
0000
7878
5cd8
4f98
6038
3070
2730
2730
2730
3070
6038
4f98
5cd8
7878
0000
0000
0000
0000
ENDCHAR
STARTCHAR C00a9
ENCODING 169
SWIDTH 666 0
DWIDTH 14 0
BBX 14 20 0 -5
BITMAP
0000
0000
07c0
0cc0
09c0
0bc0
08e0
0860
0ce0
07c0
0000
0000
0000
0000
0000
0000
0000
0000
0000
0000
ENDCHAR
STARTCHAR C00aa
ENCODING 170
SWIDTH 666 0
DWIDTH 14 0
BBX 14 20 0 -5
BITMAP
0000
0000
1ff0
3330
2670
2ef0
2238
2218
3338
1ff0
0000
0000
0000
0000
0000
0000
0000
0000
0000
0000
ENDCHAR
STARTCHAR C00ab
ENCODING 171
SWIDTH 666 0
DWIDTH 14 0
BBX 14 20 0 -5
BITMAP
0000
0000
0000
0000
0ff8
1998
3338
6670
cce0
99c0
cce0
6670
3338
1998
0ff8
0000
0000
0000
0000
0000
ENDCHAR
STARTCHAR C00ac
ENCODING 172
SWIDTH 666 0
DWIDTH 14 0
BBX 14 20 0 -5
BITMAP
0000
0000
0000
0000
0000
0000
0000
0000
3c00
6c00
cff8
8018
8018
cff8
6c00
3c00
0000
0000
0000
0000
ENDCHAR
STARTCHAR C00ad
ENCODING 173
SWIDTH 666 0
DWIDTH 14 0
BBX 14 20 0 -5
BITMAP
0000
0000
0f80
19c0
30e0
2060
39e0
0980
0980
0980
0980
0980
0980
0980
0980
0980
0f80
0000
0000
0000
ENDCHAR
STARTCHAR C00ae
ENCODING 174
SWIDTH 666 0
DWIDTH 14 0
BBX 14 20 0 -5
BITMAP
0000
0000
0000
0000
0000
0000
0000
0000
01e0
0170
ff38
8018
8018
ff38
0170
01e0
0000
0000
0000
0000
ENDCHAR
STARTCHAR C00af
ENCODING 175
SWIDTH 666 0
DWIDTH 14 0
BBX 14 20 0 -5
BITMAP
0000
0000
0f80
0980
0980
0980
0980
0980
0980
0980
0980
0980
39e0
2060
30e0
19c0
0f80
0000
0000
0000
ENDCHAR
STARTCHAR C00b0
ENCODING 176
SWIDTH 666 0
DWIDTH 14 0
BBX 14 20 0 -5
BITMAP
0000
0000
0f80
19c0
30e0
2660
2660
30e0
19c0
0f80
0000
0000
0000
0000
0000
0000
0000
0000
0000
0000
ENDCHAR
STARTCHAR C00b1
ENCODING 177
SWIDTH 666 0
DWIDTH 14 0
BBX 14 20 0 -5
BITMAP
0000
0000
0000
0000
0f80
0980
0980
79f0
4030
4030
79f0
0980
0980
7ff0
4030
4030
7ff0
0000
0000
0000
ENDCHAR
STARTCHAR C00b2
ENCODING 178
SWIDTH 666 0
DWIDTH 14 0
BBX 14 20 0 -5
BITMAP
0000
0000
1fc0
30e0
2660
3c60
18e0
31c0
23e0
2060
3fe0
0000
0000
0000
0000
0000
0000
0000
0000
0000
ENDCHAR
STARTCHAR C00b3
ENCODING 179
SWIDTH 666 0
DWIDTH 14 0
BBX 14 20 0 -5
BITMAP
0000
0000
1ff0
1030
1f30
0670
0430
1f30
1330
1870
0fe0
0000
0000
0000
0000
0000
0000
0000
0000
0000
ENDCHAR
STARTCHAR C00b4
ENCODING 180
SWIDTH 666 0
DWIDTH 14 0
BBX 14 20 0 -5
BITMAP
0000
0000
0000
0000
0000
0000
7df0
4f30
6670
30e0
19c0
30e0
6670
4f30
7df0
0000
0000
0000
0000
0000
ENDCHAR
STARTCHAR C00b5
ENCODING 181
SWIDTH 666 0
DWIDTH 14 0
BBX 14 20 0 -5
BITMAP
0000
0000
0000
0000
0000
0000
7ef8
4698
6698
2698
2698
2698
2798
2318
2018
2498
27f8
2600
2600
3e00
ENDCHAR
STARTCHAR C00b6
ENCODING 182
SWIDTH 666 0
DWIDTH 14 0
BBX 14 20 0 -5
BITMAP
0000
0000
3ff8
6018
4338
4330
4330
6330
3330
1330
1330
1330
1330
1330
1330
1330
1ff0
0000
0000
0000
ENDCHAR
STARTCHAR C00b7
ENCODING 183
SWIDTH 666 0
DWIDTH 14 0
BBX 14 20 0 -5
BITMAP
0000
0000
0000
0000
0000
0000
0000
0000
0f80
0980
0980
0f80
0000
0000
0000
0000
0000
0000
0000
0000
ENDCHAR
STARTCHAR C00b8
ENCODING 184
SWIDTH 666 0
DWIDTH 14 0
BBX 14 20 0 -5
BITMAP
0000
0000
0000
0000
0000
0000
0f80
0980
0980
7ff0
4030
4030
7ff0
0980
0980
0f80
0000
0000
0000
0000
ENDCHAR
STARTCHAR C00b9
ENCODING 185
SWIDTH 666 0
DWIDTH 14 0
BBX 14 20 0 -5
BITMAP
0000
0000
0f80
19c0
10c0
18c0
0ec0
0cc0
09c0
0f80
0000
0000
0000
0000
0000
0000
0000
0000
0000
0000
ENDCHAR
STARTCHAR C00ba
ENCODING 186
SWIDTH 666 0
DWIDTH 14 0
BBX 14 20 0 -5
BITMAP
0000
0000
3ff0
6738
4218
6318
3bd8
3398
2738
3ff0
0000
0000
0000
0000
0000
0000
0000
0000
0000
0000
ENDCHAR
STARTCHAR C00bb
ENCODING 187
SWIDTH 666 0
DWIDTH 14 0
BBX 14 20 0 -5
BITMAP
0000
0000
0000
0000
ff80
99c0
cce0
6670
3338
1998
3338
6670
cce0
99c0
ff80
0000
0000
0000
0000
0000
ENDCHAR
STARTCHAR C00bc
ENCODING 188
SWIDTH 666 0
DWIDTH 14 0
BBX 14 20 0 -5
BITMAP
0000
0000
1f00
3300
6378
43d8
7398
1338
1278
1c98
1918
3218
649c
4c0c
5f9c
7898
00f8
0000
0000
0000
ENDCHAR
STARTCHAR C00bd
ENCODING 189
SWIDTH 666 0
DWIDTH 14 0
BBX 14 20 0 -5
BITMAP
0000
0000
1f00
3300
6378
43d8
7398
1338
1270
1cf8
191c
32cc
678c
4f1c
5e3c
7a0c
03fc
0000
0000
0000
ENDCHAR
STARTCHAR C00be
ENCODING 190
SWIDTH 666 0
DWIDTH 14 0
BBX 14 20 0 -5
BITMAP
0000
0000
7f80
4180
79f8
13d8
7998
4938
6278
3c98
1918
3218
649c
4c0c
5f9c
7898
00f8
0000
0000
0000
ENDCHAR
STARTCHAR C00bf
ENCODING 191
SWIDTH 666 0
DWIDTH 14 0
BBX 14 20 0 -5
BITMAP
0000
0000
07c0
04c0
04c0
07c0
04c0
0cc0
18c0
31c0
23f8
2798
2798
2318
3038
1870
0fe0
0000
0000
0000
ENDCHAR
STARTCHAR C00c0
ENCODING 192
SWIDTH 666 0
DWIDTH 14 0
BBX 14 20 0 -5
BITMAP
0000
0000
07c0
04c0
04c0
07c0
04c0
0cc0
18c0
31c0
23f8
2798
2798
2318
3038
1870
0fe0
0000
0000
0000
ENDCHAR
STARTCHAR C00c1
ENCODING 193
SWIDTH 666 0
DWIDTH 14 0
BBX 14 20 0 -5
BITMAP
0000
0000
1f00
1380
11c0
18e0
0c60
0660
03e0
0000
0000
0000
0000
0000
0000
0000
0000
0000
0000
0000
ENDCHAR
STARTCHAR C00c2
ENCODING 194
SWIDTH 666 0
DWIDTH 14 0
BBX 14 20 0 -5
BITMAP
0000
0000
03e0
0660
0c60
18e0
11c0
1380
1f00
0000
0000
0000
0000
0000
0000
0000
0000
0000
0000
0000
ENDCHAR
STARTCHAR C00c3
ENCODING 195
SWIDTH 666 0
DWIDTH 14 0
BBX 14 20 0 -5
BITMAP
0000
0000
0780
18e0
3070
2230
2730
3ff0
0000
0000
0000
0000
0000
0000
0000
0000
0000
0000
0000
0000
ENDCHAR
STARTCHAR C00c4
ENCODING 196
SWIDTH 666 0
DWIDTH 14 0
BBX 14 20 0 -5
BITMAP
0000
0000
1ff8
6198
4c38
4e70
7fe0
0000
0000
0000
0000
0000
0000
0000
0000
0000
0000
0000
0000
0000
ENDCHAR
STARTCHAR C00c5
ENCODING 197
SWIDTH 666 0
DWIDTH 14 0
BBX 14 20 0 -5
BITMAP
0000
0000
7ff8
4018
4018
7ff8
0000
0000
0000
0000
0000
0000
0000
0000
0000
0000
0000
0000
0000
0000
ENDCHAR
STARTCHAR C00c6
ENCODING 198
SWIDTH 666 0
DWIDTH 14 0
BBX 14 20 0 -5
BITMAP
0000
0000
7cf8
4f98
4718
6038
3070
1fe0
0000
0000
0000
0000
0000
0000
0000
0000
0000
0000
0000
0000
ENDCHAR
STARTCHAR C00c7
ENCODING 199
SWIDTH 666 0
DWIDTH 14 0
BBX 14 20 0 -5
BITMAP
0000
0000
0f80
0980
0980
0f80
0000
0000
0000
0000
0000
0000
0000
0000
0000
0000
0000
0000
0000
0000
ENDCHAR
STARTCHAR C00c8
ENCODING 200
SWIDTH 666 0
DWIDTH 14 0
BBX 14 20 0 -5
BITMAP
0000
0000
3ff0
2730
2730
3ff0
0000
0000
0000
0000
0000
0000
0000
0000
0000
0000
0000
0000
0000
0000
ENDCHAR
STARTCHAR C00c9
ENCODING 201
SWIDTH 666 0
DWIDTH 14 0
BBX 14 20 0 -5
BITMAP
0000
0000
3ff0
2730
2730
3ff0
0000
0000
0000
0000
0000
0000
0000
0000
0000
0000
0000
0000
0000
0000
ENDCHAR
STARTCHAR C00ca
ENCODING 202
SWIDTH 666 0
DWIDTH 14 0
BBX 14 20 0 -5
BITMAP
0000
0000
0f80
19c0
30e0
2660
2660
30e0
19c0
0f80
0000
0000
0000
0000
0000
0000
0000
0000
0000
0000
ENDCHAR
STARTCHAR C00cb
ENCODING 203
SWIDTH 666 0
DWIDTH 14 0
BBX 14 20 0 -5
BITMAP
0000
0000
0000
0000
0000
0000
0000
0000
0000
0000
0000
0000
0000
0f80
09c0
08e0
0860
1e60
1060
10e0
ENDCHAR
STARTCHAR C00cc
ENCODING 204
SWIDTH 666 0
DWIDTH 14 0
BBX 14 20 0 -5
BITMAP
0000
0000
0000
0000
0000
0000
0000
0000
0000
0000
0000
0000
0000
3ff0
2030
2030
3ff0
0000
0000
0000
ENDCHAR
STARTCHAR C00cd
ENCODING 205
SWIDTH 666 0
DWIDTH 14 0
BBX 14 20 0 -5
BITMAP
0000
0000
1ff8
3398
6318
4638
4e70
7fe0
0000
0000
0000
0000
0000
0000
0000
0000
0000
0000
0000
0000
ENDCHAR
STARTCHAR C00ce
ENCODING 206
SWIDTH 666 0
DWIDTH 14 0
BBX 14 20 0 -5
BITMAP
0000
0000
0000
0000
0000
0000
0000
0000
0000
0000
0000
0000
0000
0000
1f00
1300
1300
13e0
1060
1860
ENDCHAR
STARTCHAR C00cf
ENCODING 207
SWIDTH 666 0
DWIDTH 14 0
BBX 14 20 0 -5
BITMAP
0000
0000
7ff8
4718
6238
3070
18e0
0dc0
0780
0000
0000
0000
0000
0000
0000
0000
0000
0000
0000
0000
ENDCHAR
STARTCHAR C00d0
ENCODING 208
SWIDTH 666 0
DWIDTH 14 0
BBX 14 20 0 -5
BITMAP
0000
0000
0000
0000
0000
0000
0000
0000
7ff8
4018
4018
7ff8
0000
0000
0000
0000
0000
0000
0000
0000
ENDCHAR
STARTCHAR C00d1
ENCODING 209
SWIDTH 666 0
DWIDTH 14 0
BBX 14 20 0 -5
BITMAP
0000
0000
07c0
0cc0
18c0
10c0
1cc0
04c0
04c0
04c0
07c0
0000
0000
0000
0000
0000
0000
0000
0000
0000
ENDCHAR
STARTCHAR C00d2
ENCODING 210
SWIDTH 666 0
DWIDTH 14 0
BBX 14 20 0 -5
BITMAP
0000
0000
0000
0000
1fe0
3070
6738
dfdc
90cc
b6ec
b0ec
b5ec
96cc
dfdc
6738
3070
1fe0
0000
0000
0000
ENDCHAR
STARTCHAR C00d3
ENCODING 211
SWIDTH 666 0
DWIDTH 14 0
BBX 14 20 0 -5
BITMAP
0000
0000
0000
0000
1fe0
3070
6738
dfdc
98cc
b7ec
b62c
b7ec
98cc
dfdc
6738
3070
1fe0
0000
0000
0000
ENDCHAR
STARTCHAR C00d4
ENCODING 212
SWIDTH 666 0
DWIDTH 14 0
BBX 14 20 0 -5
BITMAP
0000
0000
fff8
81d8
ec98
2c18
2d58
2dd8
2dd8
3ff8
0000
0000
0000
0000
0000
0000
0000
0000
0000
0000
ENDCHAR
STARTCHAR C00d5
ENCODING 213
SWIDTH 666 0
DWIDTH 14 0
BBX 14 20 0 -5
BITMAP
0000
0000
03c0
02e0
0270
0238
0298
02d8
02d8
02b8
02f0
02c0
02c0
3ec0
60c0
40c0
40c0
61c0
3f80
0000
ENDCHAR
STARTCHAR C00d6
ENCODING 214
SWIDTH 666 0
DWIDTH 14 0
BBX 14 20 0 -5
BITMAP
0000
0000
07c0
04c0
04c0
04c0
04c0
04c0
07c0
0000
07c0
04c0
04c0
04c0
04c0
04c0
07c0
0000
0000
0000
ENDCHAR
STARTCHAR C00d7
ENCODING 215
SWIDTH 666 0
DWIDTH 14 0
BBX 14 20 0 -5
BITMAP
0000
0000
3ff8
2018
2018
3f98
0098
0098
00f8
0000
0000
0000
0000
0000
0000
0000
0000
0000
0000
0000
ENDCHAR
STARTCHAR C00d8
ENCODING 216
SWIDTH 666 0
DWIDTH 14 0
BBX 14 20 0 -5
BITMAP
0000
0000
3ff8
2018
2018
3f98
0098
0098
00f8
0000
0000
0000
0000
0000
0000
0000
0000
0000
0000
0000
ENDCHAR
STARTCHAR C00d9
ENCODING 217
SWIDTH 666 0
DWIDTH 14 0
BBX 14 20 0 -5
BITMAP
0000
0000
3ff8
2018
2018
3f98
0098
0098
00f8
0000
0000
0000
0000
0000
0000
0000
0000
0000
0000
0000
ENDCHAR
STARTCHAR C00da
ENCODING 218
SWIDTH 666 0
DWIDTH 14 0
BBX 14 20 0 -5
BITMAP
0000
0000
3ff8
2018
2018
3f98
0098
0098
00f8
0000
0000
0000
0000
0000
0000
0000
0000
0000
0000
0000
ENDCHAR
STARTCHAR C00db
ENCODING 219
SWIDTH 666 0
DWIDTH 14 0
BBX 14 20 0 -5
BITMAP
0000
0000
3ff8
2018
2018
3f98
0098
0098
00f8
0000
0000
0000
0000
0000
0000
0000
0000
0000
0000
0000
ENDCHAR
STARTCHAR C00dc
ENCODING 220
SWIDTH 666 0
DWIDTH 14 0
BBX 14 20 0 -5
BITMAP
0000
0000
1f00
3300
6300
43f8
7398
1338
1270
1cf8
191c
324c
671c
4e4c
7e4c
031c
01f8
0000
0000
0000
ENDCHAR
STARTCHAR C00dd
ENCODING 221
SWIDTH 666 0
DWIDTH 14 0
BBX 14 20 0 -5
BITMAP
0000
0000
7f80
4180
7980
13f8
7998
4938
6270
3cf8
191c
324c
671c
4e4c
7e4c
031c
01f8
0000
0000
0000
ENDCHAR
STARTCHAR C00de
ENCODING 222
SWIDTH 666 0
DWIDTH 14 0
BBX 14 20 0 -5
BITMAP
0000
0000
7f00
4300
4f00
47f8
7398
5338
4670
7cf8
191c
324c
671c
4e4c
7e4c
031c
01f8
0000
0000
0000
ENDCHAR
STARTCHAR C00df
ENCODING 223
SWIDTH 666 0
DWIDTH 14 0
BBX 14 20 0 -5
BITMAP
0000
0000
7f80
4180
7980
13f8
3398
2738
2670
3cf8
191c
324c
671c
4e4c
7e4c
031c
01f8
0000
0000
0000
ENDCHAR
STARTCHAR C00e0
ENCODING 224
SWIDTH 666 0
DWIDTH 14 0
BBX 14 20 0 -5
BITMAP
0000
0000
0000
1fe0
3070
6038
4718
4f98
4c98
4f98
4718
6238
3270
7278
4218
4218
7ff8
0000
0000
0000
ENDCHAR
STARTCHAR C00e1
ENCODING 225
SWIDTH 666 0
DWIDTH 14 0
BBX 14 20 0 -5
BITMAP
0000
0000
0ff8
1818
3018
60f8
44c0
4cf8
4c18
4c18
40f8
40c0
4cc0
4cf8
4c18
4c18
7ff8
0000
0000
0000
ENDCHAR
STARTCHAR C00e2
ENCODING 226
SWIDTH 666 0
DWIDTH 14 0
BBX 14 20 0 -5
BITMAP
0000
0000
3fc0
20e0
2070
2630
2738
6718
4198
4198
6798
2718
2738
2630
2070
20e0
3fc0
0000
0000
0000
ENDCHAR
STARTCHAR C00e3
ENCODING 227
SWIDTH 666 0
DWIDTH 14 0
BBX 14 20 0 -5
BITMAP
0000
0000
1fe0
3070
2330
3f30
3030
2730
2738
3018
7ff8
4018
4018
7ff8
0000
0000
0000
0000
0000
0000
ENDCHAR
STARTCHAR C00e4
ENCODING 228
SWIDTH 666 0
DWIDTH 14 0
BBX 14 20 0 -5
BITMAP
0000
0000
3ff0
2730
6738
4018
4018
6738
2030
2030
2730
2730
2730
2730
2730
2730
3ff0
0000
0000
0000
ENDCHAR
STARTCHAR C00e5
ENCODING 229
SWIDTH 666 0
DWIDTH 14 0
BBX 14 20 0 -5
BITMAP
0000
0000
3ff0
2730
6738
4018
4018
6738
2030
2030
2730
2730
2730
2730
2730
2730
3ff0
0000
0000
0000
ENDCHAR
STARTCHAR C00e6
ENCODING 230
SWIDTH 666 0
DWIDTH 14 0
BBX 14 20 0 -5
BITMAP
0000
0000
7cf8
4c98
4c98
4c98
4c98
4c98
4c98
4c98
4c98
4c98
4d98
4f18
4838
4870
7fe0
0000
0000
0000
ENDCHAR
STARTCHAR C00e7
ENCODING 231
SWIDTH 666 0
DWIDTH 14 0
BBX 14 20 0 -5
BITMAP
0000
0000
7c00
4c00
4c00
4c00
4c00
4fc0
4cc0
4cc0
4fc0
4c00
4c00
4ff8
4018
4018
7ff8
0000
0000
0000
ENDCHAR
STARTCHAR C00e8
ENCODING 232
SWIDTH 666 0
DWIDTH 14 0
BBX 14 20 0 -5
BITMAP
0000
0000
1f00
1300
13f0
1330
1270
10e0
31c0
6380
4300
5300
7300
13f8
1018
1018
1ff8
0000
0000
0000
ENDCHAR
STARTCHAR C00e9
ENCODING 233
SWIDTH 666 0
DWIDTH 14 0
BBX 14 20 0 -5
BITMAP
0000
0000
1ffc
304c
200c
671c
4f18
4e18
4c18
4898
4198
4398
4798
c738
8030
9070
ffe0
0000
0000
0000
ENDCHAR
STARTCHAR C00ea
ENCODING 234
SWIDTH 666 0
DWIDTH 14 0
BBX 14 20 0 -5
BITMAP
0000
0000
1ff8
3018
2018
64f8
4cc0
4cf8
4c18
4c18
4cf8
4cc0
4cc0
64f8
2018
3018
1ff8
0000
0000
0000
ENDCHAR
STARTCHAR C00eb
ENCODING 235
SWIDTH 666 0
DWIDTH 14 0
BBX 14 20 0 -5
BITMAP
0000
0000
0fc0
18e0
3270
2730
2730
2730
3270
18e0
7ff8
4018
4018
7ff8
0000
0000
0000
0000
0000
0000
ENDCHAR
STARTCHAR C00ec
ENCODING 236
SWIDTH 666 0
DWIDTH 14 0
BBX 14 20 0 -5
BITMAP
0000
0000
7f00
4300
4300
67e0
2070
2038
2718
2798
2718
2038
2070
67e0
4300
4300
7f00
0000
0000
0000
ENDCHAR
STARTCHAR C00ed
ENCODING 237
SWIDTH 666 0
DWIDTH 14 0
BBX 14 20 0 -5
BITMAP
0000
0000
7ff0
4030
4030
79f0
0980
0980
0980
39e0
2060
2060
39e0
0980
0980
0980
0f80
0000
0000
0000
ENDCHAR
STARTCHAR C00ee
ENCODING 238
SWIDTH 666 0
DWIDTH 14 0
BBX 14 20 0 -5
BITMAP
0000
0000
7fe0
4870
4038
4318
4798
4e98
4c98
4c98
4c98
4c98
4c98
4f98
4c18
4c38
7ff0
0000
0000
0000
ENDCHAR
STARTCHAR C00ef
ENCODING 239
SWIDTH 666 0
DWIDTH 14 0
BBX 14 20 0 -5
BITMAP
0000
0000
7c00
4c00
4c00
4c00
5ff0
7238
1018
1198
1398
1398
1398
1398
1398
1398
1ff8
0000
0000
0000
ENDCHAR
STARTCHAR C00f0
ENCODING 240
SWIDTH 666 0
DWIDTH 14 0
BBX 14 20 0 -5
BITMAP
0000
0000
0000
0000
0000
3ff0
2730
2630
2470
20e0
21c0
20e0
2470
2630
2730
3ff0
0000
0000
0000
0000
ENDCHAR
STARTCHAR C00f1
ENCODING 241
SWIDTH 666 0
DWIDTH 14 0
BBX 14 20 0 -5
BITMAP
0000
0000
0000
0000
0000
0000
3ff8
631c
400c
7cec
600c
400c
5cfc
400c
611c
3ff8
0000
0000
0000
0000
ENDCHAR
STARTCHAR C00f2
ENCODING 242
SWIDTH 666 0
DWIDTH 14 0
BBX 14 20 0 -5
BITMAP
0000
0000
00f8
039c
020c
020c
1f9c
3098
6018
4718
4f98
4c98
4f98
4718
6018
3098
1ff8
0000
0000
0000
ENDCHAR
STARTCHAR C00f3
ENCODING 243
SWIDTH 666 0
DWIDTH 14 0
BBX 14 20 0 -5
BITMAP
0000
0000
3fc0
24c0
21c0
31c0
60e0
4c70
7030
6038
4718
4f98
4f98
4718
6038
3070
1fe0
0000
0000
0000
ENDCHAR
STARTCHAR C00f4
ENCODING 244
SWIDTH 666 0
DWIDTH 14 0
BBX 14 20 0 -5
BITMAP
0000
0000
3e00
67e0
4060
4060
67e0
2470
2038
2198
2798
2698
2698
2698
2698
2698
3ef8
0000
0000
0000
ENDCHAR
STARTCHAR C00f5
ENCODING 245
SWIDTH 666 0
DWIDTH 14 0
BBX 14 20 0 -5
BITMAP
0000
0000
0000
0000
0000
0000
1fc0
10c0
10c0
1cc0
04c0
04c0
04c0
04c0
04c0
04c0
07c0
0000
0000
0000
ENDCHAR
STARTCHAR C00f6
ENCODING 246
SWIDTH 666 0
DWIDTH 14 0
BBX 14 20 0 -5
BITMAP
0000
0000
7df0
4d30
4d30
7df0
7ff0
4c30
4c30
4f30
4d30
4d30
4d30
4d30
4d30
4d30
7f30
0830
0870
0fe0
ENDCHAR
STARTCHAR C00f7
ENCODING 247
SWIDTH 666 0
DWIDTH 14 0
BBX 14 20 0 -5
BITMAP
0000
0000
1f00
1300
1300
1300
1300
13e0
1260
1260
13e0
1300
1300
13e0
1060
1860
0fe0
0000
0000
0000
ENDCHAR
STARTCHAR C00f8
ENCODING 248
SWIDTH 666 0
DWIDTH 14 0
BBX 14 20 0 -5
BITMAP
0000
0000
0f80
0980
09f0
0930
0870
08e0
19c0
3180
6180
4980
7980
09f0
0830
0c30
07f0
0000
0000
0000
ENDCHAR
STARTCHAR C00f9
ENCODING 249
SWIDTH 666 0
DWIDTH 14 0
BBX 14 20 0 -5
BITMAP
0000
0000
0000
0000
0000
0000
0ff8
3898
2018
6638
4c18
4898
4198
6338
4030
48f0
7fc0
0000
0000
0000
ENDCHAR
STARTCHAR C00fa
ENCODING 250
SWIDTH 666 0
DWIDTH 14 0
BBX 14 20 0 -5
BITMAP
0000
0000
0000
0000
0000
0000
1ff8
321c
600c
4ccc
4ccc
4c0c
4c1c
4cfc
600c
321c
1ff8
0000
0000
0000
ENDCHAR
STARTCHAR C00fb
ENCODING 251
SWIDTH 666 0
DWIDTH 14 0
BBX 14 20 0 -5
BITMAP
0000
0000
1fe0
3070
6038
4718
4f98
4f18
4c38
4c38
4f18
4d98
4f98
4918
4838
4c70
7fe0
0000
0000
0000
ENDCHAR
STARTCHAR C00fc
ENCODING 252
SWIDTH 666 0
DWIDTH 14 0
BBX 14 20 0 -5
BITMAP
0000
0000
0000
0000
0000
3e00
2600
27c0
20e0
2070
2630
2730
2730
2630
2070
20e0
27c0
2600
2600
3e00
ENDCHAR
STARTCHAR C00fd
ENCODING 253
SWIDTH 666 0
DWIDTH 14 0
BBX 14 20 0 -5
BITMAP
0000
0000
0f80
0980
0980
79f8
4018
4018
79f8
4018
4018
79f8
09f8
0998
0818
0c38
07f0
0000
0000
0000
ENDCHAR
STARTCHAR C00fe
ENCODING 254
SWIDTH 666 0
DWIDTH 14 0
BBX 14 20 0 -5
BITMAP
0000
0000
0000
0000
0000
0000
7fe0
4870
4038
4718
4f98
4c98
4c98
4c98
4c98
4d98
7f18
0438
0470
07e0
ENDCHAR
STARTCHAR C00ff
ENCODING 255
SWIDTH 666 0
DWIDTH 14 0
BBX 14 20 0 -5
BITMAP
0000
0000
0000
0000
0000
0000
7fe0
4870
4038
4718
4f98
4c98
4c98
4c98
4c98
4d98
7f18
0438
0470
07e0
ENDCHAR
ENDFONT
